{
	"asset":{
		"version":"2.0",
		"generator":"Created using the official Cinema 4D glTF Exporter 1.000x284978"
	},
	"scenes":[{
		"nodes":[0]
	}],
	"nodes":[{
		"name":"me",
		"translation":[-0.0009685673285275698,
		0.7896772623062134,
		-0.0066668144427239899],
		"rotation":[0.0,
		0.0,
		0.0,
		-1.0],
		"scale":[1.0,
		1.0,
		1.0],
		"children":[1,
		18]
	},
	{
		"name":"Head",
		"translation":[0.00008983926090877503,
		0.7887657880783081,
		-0.002086429391056299],
		"rotation":[-0.04249252751469612,
		0.0,
		0.0,
		-0.9990968108177185],
		"scale":[1.0,
		1.0,
		1.0],
		"children":[2,
		4,
		5,
		12]
	},
	{
		"name":"Hair.3",
		"translation":[0.015435900539159775,
		0.08809370547533035,
		0.047324903309345248],
		"rotation":[0.0,
		0.0,
		0.0,
		-1.0],
		"scale":[1.0,
		1.0,
		1.0],
		"children":[3]
	},
	{
		"name":"Hair.3",
		"mesh":0
	},
	{
		"name":"nevus",
		"translation":[0.017684675753116609,
		-0.0002492186613380909,
		0.16913184523582459],
		"rotation":[0.0,
		0.0,
		0.0,
		-1.0],
		"scale":[1.0,
		1.0,
		1.0],
		"mesh":1
	},
	{
		"name":"eyes",
		"translation":[0.021649803966283799,
		0.04720741882920265,
		0.14424677193164826],
		"rotation":[0.0,
		0.0,
		0.0,
		-1.0],
		"scale":[1.0,
		1.0,
		1.0],
		"children":[6,
		8,
		9,
		11]
	},
	{
		"name":"eyes.r.2",
		"translation":[-0.028015851974487306,
		0.010735682211816311,
		0.0033563333563506605],
		"rotation":[0.0,
		-0.03972911834716797,
		0.0,
		0.9992104768753052],
		"scale":[1.0,
		1.0,
		1.0],
		"children":[7]
	},
	{
		"name":"eyes.r.2",
		"mesh":2
	},
	{
		"name":"eyes.r.1",
		"translation":[0.02564992941915989,
		0.011096012778580189,
		-0.016750648617744447],
		"rotation":[0.0,
		0.0,
		0.0,
		-1.0],
		"scale":[1.0,
		1.0,
		1.0],
		"mesh":3
	},
	{
		"name":"eyes.r",
		"translation":[0.031851962208747867,
		0.011630321852862835,
		0.0031800209544599058],
		"rotation":[0.0,
		-0.1322563886642456,
		0.0,
		-0.9912155270576477],
		"scale":[1.0,
		1.0,
		1.0],
		"children":[10]
	},
	{
		"name":"eyes.r",
		"mesh":4
	},
	{
		"name":"eyes.l",
		"translation":[-0.02304692380130291,
		0.013994620181620121,
		-0.016750648617744447],
		"rotation":[0.0,
		0.0,
		0.0,
		-1.0],
		"scale":[1.0,
		1.0,
		1.0],
		"mesh":5
	},
	{
		"name":"HeadCore",
		"translation":[0.02281799726188183,
		0.029003670439124109,
		0.03385629132390022],
		"rotation":[0.0,
		0.0,
		0.0,
		-1.0],
		"scale":[1.0,
		1.0,
		1.0],
		"children":[13,
		15]
	},
	{
		"name":"FaceBuilderHead.1",
		"translation":[0.0,
		-0.008753789588809014,
		3.996803047469241e-17],
		"rotation":[0.0,
		0.0,
		0.0,
		-1.0],
		"scale":[1.0,
		1.0,
		1.0],
		"children":[14]
	},
	{
		"name":"FaceBuilderHead.1",
		"mesh":6
	},
	{
		"name":"eyebrow",
		"translation":[0.0,
		-0.008104488253593445,
		0.0],
		"rotation":[0.0,
		0.0,
		0.0,
		-1.0],
		"scale":[1.0,
		1.0,
		1.0],
		"children":[16]
	},
	{
		"name":"eyebrow-eyebrow",
		"children":[17]
	},
	{
		"name":"eyebrow-eyebrow",
		"mesh":7
	},
	{
		"name":"other",
		"translation":[0.0009685673285275698,
		-0.7896772623062134,
		0.0066668144427239899],
		"rotation":[0.0,
		0.0,
		0.0,
		-1.0],
		"scale":[1.0,
		1.0,
		1.0],
		"children":[19,
		20,
		23,
		26]
	},
	{
		"name":"arm",
		"mesh":8
	},
	{
		"name":"clothes",
		"children":[21]
	},
	{
		"name":"clothes",
		"children":[22]
	},
	{
		"name":"clothes",
		"mesh":9
	},
	{
		"name":"trousers",
		"children":[24]
	},
	{
		"name":"trousers",
		"children":[25]
	},
	{
		"name":"trousers",
		"mesh":10
	},
	{
		"name":"shoes",
		"children":[27]
	},
	{
		"name":"shoes",
		"children":[28]
	},
	{
		"name":"shoes",
		"mesh":11
	}],
	"meshes":[{
		"name":"Hair.3",
		"primitives":[{
			"attributes":{
				"POSITION":1
			},
			"indices":0,
			"material":0
		}]
	},
	{
		"name":"nevus",
		"primitives":[{
			"attributes":{
				"POSITION":3,
				"NORMAL":4,
				"TEXCOORD_0":5
			},
			"indices":2,
			"material":1
		}]
	},
	{
		"name":"eyes.r.2",
		"primitives":[{
			"attributes":{
				"POSITION":7,
				"NORMAL":8,
				"TEXCOORD_0":9
			},
			"indices":6,
			"material":0
		}]
	},
	{
		"name":"eyes.r.1",
		"primitives":[{
			"attributes":{
				"POSITION":11,
				"NORMAL":12,
				"TEXCOORD_0":13
			},
			"indices":10,
			"material":2
		}]
	},
	{
		"name":"eyes.r",
		"primitives":[{
			"attributes":{
				"POSITION":15,
				"NORMAL":16,
				"TEXCOORD_0":17
			},
			"indices":14,
			"material":0
		}]
	},
	{
		"name":"eyes.l",
		"primitives":[{
			"attributes":{
				"POSITION":19,
				"NORMAL":20,
				"TEXCOORD_0":21
			},
			"indices":18,
			"material":2
		}]
	},
	{
		"name":"FaceBuilderHead.1",
		"primitives":[{
			"attributes":{
				"POSITION":23,
				"NORMAL":24,
				"TEXCOORD_0":25
			},
			"indices":22,
			"material":3
		}]
	},
	{
		"name":"eyebrow-eyebrow",
		"primitives":[{
			"attributes":{
				"POSITION":27,
				"NORMAL":28,
				"TEXCOORD_0":29
			},
			"indices":26,
			"material":1
		}]
	},
	{
		"name":"arm",
		"primitives":[{
			"attributes":{
				"POSITION":31,
				"NORMAL":32,
				"TEXCOORD_0":33
			},
			"indices":30,
			"material":3
		}]
	},
	{
		"name":"clothes",
		"primitives":[{
			"attributes":{
				"POSITION":35,
				"NORMAL":36,
				"TEXCOORD_0":37
			},
			"indices":34,
			"material":4
		}]
	},
	{
		"name":"trousers",
		"primitives":[{
			"attributes":{
				"POSITION":39,
				"NORMAL":40,
				"TEXCOORD_0":41
			},
			"indices":38,
			"material":5
		}]
	},
	{
		"name":"shoes",
		"primitives":[{
			"attributes":{
				"POSITION":43,
				"TEXCOORD_0":44
			},
			"indices":42,
			"material":6
		}]
	}],
	"accessors":[{
		"componentType":5123,
		"bufferView":0,
		"type":"SCALAR",
		"count":20736,
		"byteOffset":0,
		"min":[0],
		"max":[6540]
	},
	{
		"componentType":5126,
		"bufferView":1,
		"type":"VEC3",
		"count":6541,
		"byteOffset":0,
		"min":[-0.07373540103435517,
		-0.11429280042648316,
		-0.07468206435441971],
		"max":[0.11249539256095886,
		0.10614171624183655,
		0.16735661029815675]
	},
	{
		"componentType":5123,
		"bufferView":2,
		"type":"SCALAR",
		"count":672,
		"byteOffset":0,
		"min":[0],
		"max":[150]
	},
	{
		"componentType":5126,
		"bufferView":3,
		"type":"VEC3",
		"count":151,
		"byteOffset":0,
		"min":[-0.026823973283171655,
		-0.012254585511982441,
		0.00022608612198382616],
		"max":[-0.023847201839089395,
		-0.00929685402661562,
		0.003184826113283634]
	},
	{
		"componentType":5126,
		"bufferView":3,
		"type":"VEC3",
		"count":151,
		"byteOffset":12,
		"min":[-0.9922569394111633,
		-0.9859104156494141,
		-0.9862465262413025],
		"max":[0.9922571778297424,
		0.9859104752540588,
		0.9862465262413025]
	},
	{
		"componentType":5126,
		"bufferView":3,
		"type":"VEC2",
		"count":151,
		"byteOffset":24,
		"min":[0.0,
		0.0],
		"max":[1.0,
		1.0]
	},
	{
		"componentType":5123,
		"bufferView":4,
		"type":"SCALAR",
		"count":672,
		"byteOffset":0,
		"min":[0],
		"max":[150]
	},
	{
		"componentType":5126,
		"bufferView":5,
		"type":"VEC3",
		"count":151,
		"byteOffset":0,
		"min":[-0.017337309196591378,
		-0.011968526989221573,
		0.0002167784550692886],
		"max":[-0.00578756770119071,
		-0.0004533436440397054,
		0.009280947968363762]
	},
	{
		"componentType":5126,
		"bufferView":5,
		"type":"VEC3",
		"count":151,
		"byteOffset":12,
		"min":[-0.9768974184989929,
		-0.9859104752540588,
		-0.9913866519927979],
		"max":[0.9762237071990967,
		0.9859104156494141,
		0.9918336272239685]
	},
	{
		"componentType":5126,
		"bufferView":5,
		"type":"VEC2",
		"count":151,
		"byteOffset":24,
		"min":[0.0,
		0.0],
		"max":[1.0,
		1.0]
	},
	{
		"componentType":5123,
		"bufferView":6,
		"type":"SCALAR",
		"count":672,
		"byteOffset":0,
		"min":[0],
		"max":[150]
	},
	{
		"componentType":5126,
		"bufferView":7,
		"type":"VEC3",
		"count":151,
		"byteOffset":0,
		"min":[-0.03136889263987541,
		-0.0339520201086998,
		-0.002049969043582678],
		"max":[0.014274929650127888,
		0.011399862356483937,
		0.04331737384200096]
	},
	{
		"componentType":5126,
		"bufferView":7,
		"type":"VEC3",
		"count":151,
		"byteOffset":12,
		"min":[-0.9922570586204529,
		-0.9859103560447693,
		-0.986246645450592],
		"max":[0.9922570586204529,
		0.9859104156494141,
		0.986246645450592]
	},
	{
		"componentType":5126,
		"bufferView":7,
		"type":"VEC2",
		"count":151,
		"byteOffset":24,
		"min":[0.0,
		0.0],
		"max":[1.0,
		1.0]
	},
	{
		"componentType":5123,
		"bufferView":8,
		"type":"SCALAR",
		"count":672,
		"byteOffset":0,
		"min":[0],
		"max":[150]
	},
	{
		"componentType":5126,
		"bufferView":9,
		"type":"VEC3",
		"count":151,
		"byteOffset":0,
		"min":[-0.02583279460668564,
		-0.019897324964404107,
		0.012262552045285702],
		"max":[-0.014235279522836209,
		-0.008382140658795834,
		0.021310705691576005]
	},
	{
		"componentType":5126,
		"bufferView":9,
		"type":"VEC3",
		"count":151,
		"byteOffset":12,
		"min":[-0.9802669286727905,
		-0.9859104752540588,
		-0.9874446988105774],
		"max":[0.9799099564552307,
		0.9859104752540588,
		0.9877828359603882]
	},
	{
		"componentType":5126,
		"bufferView":9,
		"type":"VEC2",
		"count":151,
		"byteOffset":24,
		"min":[0.0,
		0.0],
		"max":[1.0,
		1.0]
	},
	{
		"componentType":5123,
		"bufferView":10,
		"type":"SCALAR",
		"count":672,
		"byteOffset":0,
		"min":[0],
		"max":[150]
	},
	{
		"componentType":5126,
		"bufferView":11,
		"type":"VEC3",
		"count":151,
		"byteOffset":0,
		"min":[-0.028514578938484193,
		-0.027539141476154329,
		-0.015889888629317285],
		"max":[0.017129244282841684,
		0.017812740057706834,
		0.029477456584572793]
	},
	{
		"componentType":5126,
		"bufferView":11,
		"type":"VEC3",
		"count":151,
		"byteOffset":12,
		"min":[-0.9922570586204529,
		-0.9859104156494141,
		-0.986246645450592],
		"max":[0.9922570586204529,
		0.9859104156494141,
		0.9862465262413025]
	},
	{
		"componentType":5126,
		"bufferView":11,
		"type":"VEC2",
		"count":151,
		"byteOffset":24,
		"min":[0.0,
		0.0],
		"max":[1.0,
		1.0]
	},
	{
		"componentType":5123,
		"bufferView":12,
		"type":"SCALAR",
		"count":101184,
		"byteOffset":0,
		"min":[0],
		"max":[17901]
	},
	{
		"componentType":5126,
		"bufferView":13,
		"type":"VEC3",
		"count":17902,
		"byteOffset":0,
		"min":[-0.08440789580345154,
		-0.1636504828929901,
		-0.0675252377986908],
		"max":[0.09756096452474594,
		0.15661419928073884,
		0.1567179560661316]
	},
	{
		"componentType":5126,
		"bufferView":13,
		"type":"VEC3",
		"count":17902,
		"byteOffset":12,
		"min":[-0.9999940395355225,
		-0.9999607801437378,
		-0.9998522996902466],
		"max":[0.999923586845398,
		0.9998798966407776,
		0.9999113082885742]
	},
	{
		"componentType":5126,
		"bufferView":13,
		"type":"VEC2",
		"count":17902,
		"byteOffset":24,
		"min":[0.0,
		0.0],
		"max":[0.9765474796295166,
		1032.0]
	},
	{
		"componentType":5123,
		"bufferView":14,
		"type":"SCALAR",
		"count":456,
		"byteOffset":0,
		"min":[0],
		"max":[119]
	},
	{
		"componentType":5126,
		"bufferView":15,
		"type":"VEC3",
		"count":120,
		"byteOffset":0,
		"min":[-0.061118170619010928,
		0.027721213176846505,
		0.09128257632255554],
		"max":[0.04812569171190262,
		0.0574708916246891,
		0.14499236643314362]
	},
	{
		"componentType":5126,
		"bufferView":15,
		"type":"VEC3",
		"count":120,
		"byteOffset":12,
		"min":[-0.9110625386238098,
		-0.3569687604904175,
		0.40031251311302187],
		"max":[0.881281316280365,
		0.5368437767028809,
		0.9967188239097595]
	},
	{
		"componentType":5126,
		"bufferView":15,
		"type":"VEC2",
		"count":120,
		"byteOffset":24,
		"min":[0.4221000671386719,
		0.41200000047683718],
		"max":[0.4811999797821045,
		0.428600013256073]
	},
	{
		"componentType":5123,
		"bufferView":16,
		"type":"SCALAR",
		"count":89694,
		"byteOffset":0,
		"min":[0],
		"max":[15814]
	},
	{
		"componentType":5126,
		"bufferView":17,
		"type":"VEC3",
		"count":15815,
		"byteOffset":0,
		"min":[-0.2555124759674072,
		0.7026743292808533,
		-0.06686504930257797],
		"max":[0.2836025059223175,
		1.251859188079834,
		0.16529013216495515]
	},
	{
		"componentType":5126,
		"bufferView":17,
		"type":"VEC3",
		"count":15815,
		"byteOffset":12,
		"min":[-0.9999445080757141,
		-0.9940117001533508,
		-0.9998817443847656],
		"max":[0.9999943971633911,
		0.998197615146637,
		0.9999988675117493]
	},
	{
		"componentType":5126,
		"bufferView":17,
		"type":"VEC2",
		"count":15815,
		"byteOffset":24,
		"min":[0.22416600584983827,
		0.19653698801994325],
		"max":[0.9294779896736145,
		0.9441649913787842]
	},
	{
		"componentType":5123,
		"bufferView":18,
		"type":"SCALAR",
		"count":28116,
		"byteOffset":0,
		"min":[0],
		"max":[5586]
	},
	{
		"componentType":5126,
		"bufferView":19,
		"type":"VEC3",
		"count":5587,
		"byteOffset":0,
		"min":[-0.24068118631839753,
		0.8302342295646668,
		-0.12663742899894715],
		"max":[0.27097341418266299,
		1.539725661277771,
		0.1412900686264038]
	},
	{
		"componentType":5126,
		"bufferView":19,
		"type":"VEC3",
		"count":5587,
		"byteOffset":12,
		"min":[-0.9999837279319763,
		-0.9949460625648499,
		-0.9999876022338867],
		"max":[0.9997300505638123,
		0.9999868869781494,
		0.9999986886978149]
	},
	{
		"componentType":5126,
		"bufferView":19,
		"type":"VEC2",
		"count":5587,
		"byteOffset":24,
		"min":[0.47050297260284426,
		0.3459159731864929],
		"max":[0.8999969959259033,
		0.9073460102081299]
	},
	{
		"componentType":5123,
		"bufferView":20,
		"type":"SCALAR",
		"count":32979,
		"byteOffset":0,
		"min":[0],
		"max":[6638]
	},
	{
		"componentType":5126,
		"bufferView":21,
		"type":"VEC3",
		"count":6639,
		"byteOffset":0,
		"min":[-0.2087029218673706,
		0.07332569360733032,
		-0.10647547245025635],
		"max":[0.20310671627521516,
		0.8681268095970154,
		0.1417882740497589]
	},
	{
		"componentType":5126,
		"bufferView":21,
		"type":"VEC3",
		"count":6639,
		"byteOffset":12,
		"min":[-0.9998497366905212,
		-0.9989027976989746,
		-0.9999054670333862],
		"max":[0.9996756911277771,
		0.9814884066581726,
		0.9999300837516785]
	},
	{
		"componentType":5126,
		"bufferView":21,
		"type":"VEC2",
		"count":6639,
		"byteOffset":24,
		"min":[0.05500499904155731,
		0.31505995988845827],
		"max":[0.6149499416351318,
		0.9545539617538452]
	},
	{
		"componentType":5123,
		"bufferView":22,
		"type":"SCALAR",
		"count":7080,
		"byteOffset":0,
		"min":[0],
		"max":[1385]
	},
	{
		"componentType":5126,
		"bufferView":23,
		"type":"VEC3",
		"count":1386,
		"byteOffset":0,
		"min":[-0.2122492790222168,
		0.000011344999620632734,
		-0.12126056104898453],
		"max":[0.23539769649505616,
		0.1175646036863327,
		0.1776246577501297]
	},
	{
		"componentType":5126,
		"bufferView":23,
		"type":"VEC2",
		"count":1386,
		"byteOffset":12,
		"min":[0.004365960136055946,
		0.26974695920944216],
		"max":[0.21334800124168397,
		0.9977744817733765]
	}],
	"bufferViews":[{
		"buffer":0,
		"byteOffset":0,
		"byteLength":41472,
		"target":34963
	},
	{
		"buffer":0,
		"byteOffset":41472,
		"byteLength":78492,
		"target":34962
	},
	{
		"buffer":1,
		"byteOffset":0,
		"byteLength":1344,
		"target":34963
	},
	{
		"buffer":1,
		"byteOffset":1344,
		"byteLength":4832,
		"target":34962,
		"byteStride":32
	},
	{
		"buffer":2,
		"byteOffset":0,
		"byteLength":1344,
		"target":34963
	},
	{
		"buffer":2,
		"byteOffset":1344,
		"byteLength":4832,
		"target":34962,
		"byteStride":32
	},
	{
		"buffer":3,
		"byteOffset":0,
		"byteLength":1344,
		"target":34963
	},
	{
		"buffer":3,
		"byteOffset":1344,
		"byteLength":4832,
		"target":34962,
		"byteStride":32
	},
	{
		"buffer":4,
		"byteOffset":0,
		"byteLength":1344,
		"target":34963
	},
	{
		"buffer":4,
		"byteOffset":1344,
		"byteLength":4832,
		"target":34962,
		"byteStride":32
	},
	{
		"buffer":5,
		"byteOffset":0,
		"byteLength":1344,
		"target":34963
	},
	{
		"buffer":5,
		"byteOffset":1344,
		"byteLength":4832,
		"target":34962,
		"byteStride":32
	},
	{
		"buffer":6,
		"byteOffset":0,
		"byteLength":202368,
		"target":34963
	},
	{
		"buffer":6,
		"byteOffset":202368,
		"byteLength":572864,
		"target":34962,
		"byteStride":32
	},
	{
		"buffer":7,
		"byteOffset":0,
		"byteLength":912,
		"target":34963
	},
	{
		"buffer":7,
		"byteOffset":912,
		"byteLength":3840,
		"target":34962,
		"byteStride":32
	},
	{
		"buffer":8,
		"byteOffset":0,
		"byteLength":179388,
		"target":34963
	},
	{
		"buffer":8,
		"byteOffset":179388,
		"byteLength":506080,
		"target":34962,
		"byteStride":32
	},
	{
		"buffer":9,
		"byteOffset":0,
		"byteLength":56232,
		"target":34963
	},
	{
		"buffer":9,
		"byteOffset":56232,
		"byteLength":178784,
		"target":34962,
		"byteStride":32
	},
	{
		"buffer":10,
		"byteOffset":0,
		"byteLength":65958,
		"target":34963
	},
	{
		"buffer":10,
		"byteOffset":65960,
		"byteLength":212448,
		"target":34962,
		"byteStride":32
	},
	{
		"buffer":11,
		"byteOffset":0,
		"byteLength":14160,
		"target":34963
	},
	{
		"buffer":11,
		"byteOffset":14160,
		"byteLength":27720,
		"target":34962,
		"byteStride":20
	}],
	"buffers":[{
		"uri":"data:application/octet-stream;base64,",
		"byteLength":119964
	},
	{
		"uri":"data:application/octet-stream;base64,",
		"byteLength":6176
	},
	{
		"uri":"data:application/octet-stream;base64,",
		"byteLength":6176
	},
	{
		"uri":"data:application/octet-stream;base64,",
		"byteLength":6176
	},
	{
		"uri":"data:application/octet-stream;base64,",
		"byteLength":6176
	},
	{
		"uri":"data:application/octet-stream;base64,",
		"byteLength":6176
	},
	{
		"uri":"data:application/octet-stream;base64,",
		"byteLength":775232
	},
	{
		"uri":"data:application/octet-stream;base64,",
		"byteLength":4752
	},
	{
		"uri":"data:application/octet-stream;base64,",
		"byteLength":685468
	},
	{
		"uri":"data:application/octet-stream;base64,",
		"byteLength":235016
	},
	{
		"uri":"data:application/octet-stream;base64,",
		"byteLength":278408
	},
	{
		"uri":"data:application/octet-stream;base64,",
		"byteLength":41880
	}],
	"materials":[{
		"pbrMetallicRoughness":{
			"baseColorFactor":[0.01,
			0.01,
			0.01,
			1.0],
			"metallicFactor":0.0,
			"roughnessFactor":0.5
		},
		"emissiveFactor":[0.0,
		0.0,
		0.0],
		"alphaMode":"OPAQUE",
		"doubleSided":true,
		"name":"Hair"
	},
	{
		"pbrMetallicRoughness":{
			"baseColorFactor":[0.0,
			0.0,
			0.0,
			1.0],
			"metallicFactor":0.0,
			"roughnessFactor":0.5
		},
		"emissiveFactor":[0.0,
		0.0,
		0.0],
		"alphaMode":"OPAQUE",
		"doubleSided":true,
		"name":"eyebrow"
	},
	{
		"pbrMetallicRoughness":{
			"baseColorFactor":[0.8,
			0.8,
			0.8,
			1.0],
			"metallicFactor":0.0,
			"roughnessFactor":0.5
		},
		"emissiveFactor":[0.0,
		0.0,
		0.0],
		"alphaMode":"OPAQUE",
		"doubleSided":true,
		"name":"eye"
	},
	{
		"pbrMetallicRoughness":{
			"baseColorFactor":[0.9543147208121827,
			0.5827617305264239,
			0.3826947357571697,
			1.0],
			"metallicFactor":1.0,
			"roughnessFactor":1.0
		},
		"emissiveFactor":[0.0,
		0.0,
		0.0],
		"alphaMode":"OPAQUE",
		"doubleSided":true,
		"name":"skin"
	},
	{
		"pbrMetallicRoughness":{
			"baseColorFactor":[0.9137055837563451,
			0.15227337640209055,
			0.0510190935092376,
			1.0],
			"metallicFactor":1.0,
			"roughnessFactor":1.0
		},
		"emissiveFactor":[0.0,
		0.0,
		0.0],
		"alphaMode":"OPAQUE",
		"doubleSided":true,
		"name":"clothes"
	},
	{
		"pbrMetallicRoughness":{
			"baseColorFactor":[0.35532994923857877,
			0.35532994923857877,
			0.35532994923857877,
			1.0],
			"metallicFactor":1.0,
			"roughnessFactor":1.0
		},
		"emissiveFactor":[0.0,
		0.0,
		0.0],
		"alphaMode":"OPAQUE",
		"doubleSided":true,
		"name":"trousers"
	},
	{
		"pbrMetallicRoughness":{
			"baseColorFactor":[0.040609137055837799,
			0.040609137055837799,
			0.040609137055837799,
			1.0],
			"metallicFactor":0.0,
			"roughnessFactor":0.5
		},
		"emissiveFactor":[0.0,
		0.0,
		0.0],
		"alphaMode":"OPAQUE",
		"doubleSided":true,
		"name":"shoes"
	}]
}