<?xml version="1.0" encoding="utf-8"?>
<svg version="1.1" id="logo" xmlns="http://www.w3.org/2000/svg" xmlns:xlink="http://www.w3.org/1999/xlink" x="0px" y="0px" viewBox="0 0 400 270" style="enable-background:new 0 0 400 270;" xml:space="preserve">
<style type="text/css"> .st0{fill:#FFFFFF;} </style>
<g><path class="st0" d="M23.5,269h-14c-4.42,0-8-3.58-8-8V25c0-13.25,10.75-24,24-24h14c4.42,0,8,3.58,8,8v236C47.5,258.25,36.75,269,23.5,269z"/></g>
<g><path class="st0" d="M214.5,1h-108c-13.25,0-24,10.75-24,24v236c0,4.42,3.58,8,8,8h108c13.25,0,24-10.75,24-24V9C222.5,4.58,218.92,1,214.5,1z M175.5,224c0,4.42-3.58,8-8,8h-30c-4.42,0-8-3.58-8-8V46c0-4.42,3.58-8,8-8h30c4.42,0,8,3.58,8,8V224z"/></g>
<g><path class="st0" d="M390.5,1h-108c-13.25,0-24,10.75-24,24v236c0,4.42,3.58,8,8,8h108c13.25,0,24-10.75,24-24V9C398.5,4.58,394.92,1,390.5,1z M351.5,224c0,4.42-3.58,8-8,8h-30c-4.42,0-8-3.58-8-8V46c0-4.42,3.58-8,8-8h30c4.42,0,8,3.58,8,8V224z"/></g>
</svg>
