{
	"asset":{
		"version":"2.0",
		"generator":"Created using the official Cinema 4D glTF Exporter 1.000x284978"
	},
	"scenes":[{
		"nodes":[0]
	}],
	"materials":[{
		"pbrMetallicRoughness":{
			"baseColorFactor":[0.01,
			0.01,
			0.01,
			1.0],
			"metallicFactor":0.0,
			"roughnessFactor":0.5
		},
		"emissiveFactor":[0.0,
		0.0,
		0.0],
		"alphaMode":"OPAQUE",
		"doubleSided":true,
		"name":"Hair"
	},
	{
		"pbrMetallicRoughness":{
			"baseColorFactor":[0.8,
			0.8,
			0.8,
			1.0],
			"metallicFactor":0.0,
			"roughnessFactor":0.5
		},
		"emissiveFactor":[0.0,
		0.0,
		0.0],
		"alphaMode":"OPAQUE",
		"doubleSided":true,
		"name":"eye"
	},
	{
		"pbrMetallicRoughness":{
			"baseColorFactor":[0.9543147208121827,
			0.5827617305264239,
			0.3826947357571697,
			1.0],
			"metallicFactor":1.0,
			"roughnessFactor":1.0
		},
		"emissiveFactor":[0.0,
		0.0,
		0.0],
		"alphaMode":"OPAQUE",
		"doubleSided":true,
		"name":"skin"
	},
	{
		"pbrMetallicRoughness":{
			"baseColorFactor":[0.0,
			0.0,
			0.0,
			1.0],
			"metallicFactor":0.0,
			"roughnessFactor":0.5
		},
		"emissiveFactor":[0.0,
		0.0,
		0.0],
		"alphaMode":"OPAQUE",
		"doubleSided":true,
		"name":"eyebrow"
	}],
	"nodes":[{
		"name":"Head",
		"children":[1,
		2]
	},
	{
		"name":"test",
		"translation":[0.0,
		0.34015506505966189,
		0.0],
		"rotation":[0.0,
		0.0,
		0.0,
		-1.0],
		"scale":[1.0,
		1.0,
		1.0],
		"mesh":0
	},
	{
		"name":"减面",
		"translation":[0.0029476687777787449,
		0.028769778087735177,
		0.0625896155834198],
		"rotation":[0.0,
		0.0,
		0.0,
		-1.0],
		"scale":[1.0,
		1.0,
		1.0],
		"children":[3]
	},
	{
		"name":"Head",
		"translation":[-0.02552223950624466,
		-0.019961901009082795,
		-0.14496298134326936],
		"rotation":[-0.04249252751469612,
		0.0,
		0.0,
		-0.9990968108177185],
		"scale":[1.0,
		1.0,
		1.0],
		"children":[4,
		5,
		10]
	},
	{
		"name":"Hair.3",
		"translation":[0.015435900539159775,
		0.08809370547533035,
		0.047324903309345248],
		"rotation":[0.0,
		0.0,
		0.0,
		-1.0],
		"scale":[1.0,
		1.0,
		1.0],
		"mesh":1
	},
	{
		"name":"eyes",
		"translation":[0.021649803966283799,
		0.04720741882920265,
		0.14424677193164826],
		"rotation":[0.0,
		0.0,
		0.0,
		-1.0],
		"scale":[1.0,
		1.0,
		1.0],
		"children":[6,
		7,
		8,
		9]
	},
	{
		"name":"eyes.r.2",
		"translation":[-0.028015851974487306,
		0.010735682211816311,
		0.0033563333563506605],
		"rotation":[0.0,
		-0.03972911834716797,
		0.0,
		0.9992104768753052],
		"scale":[1.0,
		1.0,
		1.0],
		"mesh":2
	},
	{
		"name":"eyes.r.1",
		"translation":[0.02564992941915989,
		0.011096012778580189,
		-0.016750648617744447],
		"rotation":[0.0,
		0.0,
		0.0,
		-1.0],
		"scale":[1.0,
		1.0,
		1.0],
		"mesh":3
	},
	{
		"name":"eyes.r",
		"translation":[0.031851962208747867,
		0.011630321852862835,
		0.0031800209544599058],
		"rotation":[-1.3755878756317004e-17,
		-0.1322563886642456,
		1.8354260981102379e-18,
		-0.9912155270576477],
		"scale":[1.0,
		1.0,
		1.0],
		"mesh":4
	},
	{
		"name":"eyes.l",
		"translation":[-0.02304692380130291,
		0.013994620181620121,
		-0.016750648617744447],
		"rotation":[0.0,
		0.0,
		0.0,
		-1.0],
		"scale":[1.0,
		1.0,
		1.0],
		"mesh":5
	},
	{
		"name":"HeadCore",
		"translation":[0.02281799726188183,
		0.029003670439124109,
		0.03385629132390022],
		"rotation":[0.0,
		0.0,
		0.0,
		-1.0],
		"scale":[1.0,
		1.0,
		1.0],
		"children":[11,
		12]
	},
	{
		"name":"FaceBuilderHead.1",
		"translation":[-1.6653344997146073e-18,
		-0.008753789588809014,
		1.4210854397564649e-16],
		"rotation":[0.0,
		0.0,
		0.0,
		-1.0],
		"scale":[1.0,
		1.0,
		1.0],
		"mesh":6
	},
	{
		"name":"eyebrow",
		"translation":[-1.6653344997146073e-18,
		-0.008104488253593445,
		-2.6645351995433717e-17],
		"rotation":[0.0,
		0.0,
		0.0,
		-1.0],
		"scale":[1.0,
		1.0,
		1.0],
		"children":[13]
	},
	{
		"name":"eyebrow-eyebrow",
		"mesh":7
	}],
	"meshes":[{
		"name":"test",
		"primitives":[{
			"attributes":{
				"POSITION":1,
				"NORMAL":2,
				"TEXCOORD_0":3
			},
			"indices":0
		}]
	},
	{
		"name":"Hair.3",
		"primitives":[{
			"attributes":{
				"POSITION":5,
				"NORMAL":6
			},
			"indices":4,
			"material":0
		}]
	},
	{
		"name":"eyes.r.2",
		"primitives":[{
			"attributes":{
				"POSITION":8,
				"NORMAL":9,
				"TEXCOORD_0":10
			},
			"indices":7,
			"material":0
		}]
	},
	{
		"name":"eyes.r.1",
		"primitives":[{
			"attributes":{
				"POSITION":12,
				"NORMAL":13,
				"TEXCOORD_0":14
			},
			"indices":11,
			"material":1
		}]
	},
	{
		"name":"eyes.r",
		"primitives":[{
			"attributes":{
				"POSITION":16,
				"NORMAL":17,
				"TEXCOORD_0":18
			},
			"indices":15,
			"material":0
		}]
	},
	{
		"name":"eyes.l",
		"primitives":[{
			"attributes":{
				"POSITION":20,
				"NORMAL":21,
				"TEXCOORD_0":22
			},
			"indices":19,
			"material":1
		}]
	},
	{
		"name":"FaceBuilderHead.1",
		"primitives":[{
			"attributes":{
				"POSITION":24,
				"NORMAL":25,
				"TEXCOORD_0":26
			},
			"indices":23,
			"material":2
		}]
	},
	{
		"name":"eyebrow-eyebrow",
		"primitives":[{
			"attributes":{
				"POSITION":28,
				"NORMAL":29,
				"TEXCOORD_0":30
			},
			"indices":27,
			"material":3
		}]
	}],
	"accessors":[{
		"bufferView":0,
		"type":"SCALAR",
		"componentType":5123,
		"count":672,
		"byteOffset":0,
		"min":[0],
		"max":[150]
	},
	{
		"bufferView":1,
		"type":"VEC3",
		"componentType":5126,
		"count":151,
		"byteOffset":0,
		"min":[-0.10000000149011612,
		-0.10000000149011612,
		-0.10000000149011612],
		"max":[0.10000000149011612,
		0.10000000149011612,
		0.10000000149011612]
	},
	{
		"bufferView":1,
		"type":"VEC3",
		"componentType":5126,
		"count":151,
		"byteOffset":12,
		"min":[-0.9999999403953552,
		-1.0,
		-0.9999999403953552],
		"max":[0.9999999403953552,
		1.0,
		0.9999999403953552]
	},
	{
		"bufferView":1,
		"type":"VEC2",
		"componentType":5126,
		"count":151,
		"byteOffset":24,
		"min":[0.0,
		0.0],
		"max":[1.0,
		1.0]
	},
	{
		"bufferView":2,
		"type":"SCALAR",
		"componentType":5123,
		"count":12399,
		"byteOffset":0,
		"min":[0],
		"max":[12158]
	},
	{
		"bufferView":3,
		"type":"VEC3",
		"componentType":5126,
		"count":12159,
		"byteOffset":0,
		"min":[-0.08541747182607651,
		-0.12080128490924835,
		-0.09028422087430954],
		"max":[0.0981304720044136,
		0.1088598296046257,
		0.14698368310928346]
	},
	{
		"bufferView":3,
		"type":"VEC3",
		"componentType":5126,
		"count":12159,
		"byteOffset":12,
		"min":[-0.9998739361763,
		-0.9962378144264221,
		-0.9995858073234558],
		"max":[0.9999976754188538,
		0.9997860789299011,
		0.9999908804893494]
	},
	{
		"bufferView":4,
		"type":"SCALAR",
		"componentType":5123,
		"count":24,
		"byteOffset":0,
		"min":[0],
		"max":[23]
	},
	{
		"bufferView":5,
		"type":"VEC3",
		"componentType":5126,
		"count":24,
		"byteOffset":0,
		"min":[-0.004360285587608814,
		-0.00545090576633811,
		-0.0031947654206305744],
		"max":[0.004360285587608814,
		0.004316512029618025,
		0.0016768175410106779]
	},
	{
		"bufferView":5,
		"type":"VEC3",
		"componentType":5126,
		"count":24,
		"byteOffset":12,
		"min":[-0.5895267724990845,
		-0.44124406576156618,
		-0.918997049331665],
		"max":[0.6743811964988709,
		0.9589312672615051,
		0.9667495489120483]
	},
	{
		"bufferView":5,
		"type":"VEC2",
		"componentType":5126,
		"count":24,
		"byteOffset":24,
		"min":[0.03125,
		0.09375],
		"max":[0.953125,
		0.890625]
	},
	{
		"bufferView":6,
		"type":"SCALAR",
		"componentType":5123,
		"count":108,
		"byteOffset":0,
		"min":[0],
		"max":[103]
	},
	{
		"bufferView":7,
		"type":"VEC3",
		"componentType":5126,
		"count":104,
		"byteOffset":0,
		"min":[-0.02128254622220993,
		-0.021686922758817674,
		-0.01972660794854164],
		"max":[0.02128254622220993,
		0.0204404778778553,
		0.02128254622220993]
	},
	{
		"bufferView":7,
		"type":"VEC3",
		"componentType":5126,
		"count":104,
		"byteOffset":12,
		"min":[-0.938414990901947,
		-0.9128122925758362,
		-0.9933401942253113],
		"max":[0.9119594097137451,
		0.9882225394248962,
		0.9863500595092773]
	},
	{
		"bufferView":7,
		"type":"VEC2",
		"componentType":5126,
		"count":104,
		"byteOffset":24,
		"min":[0.03125,
		0.0],
		"max":[1.0,
		1.0]
	},
	{
		"bufferView":8,
		"type":"SCALAR",
		"componentType":5123,
		"count":24,
		"byteOffset":0,
		"min":[0],
		"max":[23]
	},
	{
		"bufferView":9,
		"type":"VEC3",
		"componentType":5126,
		"count":24,
		"byteOffset":0,
		"min":[-0.004360285587608814,
		-0.00545090576633811,
		-0.0031947654206305744],
		"max":[0.004360285587608814,
		0.004316512029618025,
		0.0016768175410106779]
	},
	{
		"bufferView":9,
		"type":"VEC3",
		"componentType":5126,
		"count":24,
		"byteOffset":12,
		"min":[-0.5895267724990845,
		-0.44124406576156618,
		-0.918997049331665],
		"max":[0.6743811964988709,
		0.9589312672615051,
		0.9667495489120483]
	},
	{
		"bufferView":9,
		"type":"VEC2",
		"componentType":5126,
		"count":24,
		"byteOffset":24,
		"min":[0.03125,
		0.09375],
		"max":[0.953125,
		0.890625]
	},
	{
		"bufferView":10,
		"type":"SCALAR",
		"componentType":5123,
		"count":108,
		"byteOffset":0,
		"min":[0],
		"max":[103]
	},
	{
		"bufferView":11,
		"type":"VEC3",
		"componentType":5126,
		"count":104,
		"byteOffset":0,
		"min":[-0.02128254622220993,
		-0.021686922758817674,
		-0.01972660794854164],
		"max":[0.02128254622220993,
		0.0204404778778553,
		0.02128254622220993]
	},
	{
		"bufferView":11,
		"type":"VEC3",
		"componentType":5126,
		"count":104,
		"byteOffset":12,
		"min":[-0.938414990901947,
		-0.9128122925758362,
		-0.9933401942253113],
		"max":[0.9119594097137451,
		0.9882225394248962,
		0.9863500595092773]
	},
	{
		"bufferView":11,
		"type":"VEC2",
		"componentType":5126,
		"count":104,
		"byteOffset":24,
		"min":[0.03125,
		0.0],
		"max":[1.0,
		1.0]
	},
	{
		"bufferView":12,
		"type":"SCALAR",
		"componentType":5123,
		"count":2175,
		"byteOffset":0,
		"min":[0],
		"max":[2097]
	},
	{
		"bufferView":13,
		"type":"VEC3",
		"componentType":5126,
		"count":2098,
		"byteOffset":0,
		"min":[-0.09313318133354187,
		-0.1285533905029297,
		-0.06595101952552796],
		"max":[0.08336547762155533,
		0.15621478855609895,
		0.14838075637817384]
	},
	{
		"bufferView":13,
		"type":"VEC3",
		"componentType":5126,
		"count":2098,
		"byteOffset":12,
		"min":[-0.985840380191803,
		-0.9953942894935608,
		-0.9991967082023621],
		"max":[0.9995153546333313,
		0.9981681704521179,
		0.9925329685211182]
	},
	{
		"bufferView":13,
		"type":"VEC2",
		"componentType":5126,
		"count":2098,
		"byteOffset":24,
		"min":[0.0,
		0.0],
		"max":[0.9699792265892029,
		516.0]
	},
	{
		"bufferView":14,
		"type":"SCALAR",
		"componentType":5123,
		"count":210,
		"byteOffset":0,
		"min":[0],
		"max":[190]
	},
	{
		"bufferView":15,
		"type":"VEC3",
		"componentType":5126,
		"count":191,
		"byteOffset":0,
		"min":[-0.05756661668419838,
		0.04249799624085426,
		0.09337626397609711],
		"max":[0.058465149253606799,
		0.06282169371843338,
		0.1254683881998062]
	},
	{
		"bufferView":15,
		"type":"VEC3",
		"componentType":5126,
		"count":191,
		"byteOffset":12,
		"min":[-0.9120625257492065,
		-0.3569687604904175,
		0.40412500500679018],
		"max":[0.878000020980835,
		0.5629062652587891,
		0.978937566280365]
	},
	{
		"bufferView":15,
		"type":"VEC2",
		"componentType":5126,
		"count":191,
		"byteOffset":24,
		"min":[0.4221000671386719,
		0.41200000047683718],
		"max":[0.4811999797821045,
		0.428600013256073]
	}],
	"bufferViews":[{
		"buffer":0,
		"byteOffset":0,
		"byteLength":1344,
		"target":34963
	},
	{
		"buffer":0,
		"byteOffset":1344,
		"byteLength":4832,
		"target":34962,
		"byteStride":32
	},
	{
		"buffer":1,
		"byteOffset":0,
		"byteLength":24798,
		"target":34963
	},
	{
		"buffer":1,
		"byteOffset":24800,
		"byteLength":291816,
		"target":34962,
		"byteStride":24
	},
	{
		"buffer":2,
		"byteOffset":0,
		"byteLength":48,
		"target":34963
	},
	{
		"buffer":2,
		"byteOffset":48,
		"byteLength":768,
		"target":34962,
		"byteStride":32
	},
	{
		"buffer":3,
		"byteOffset":0,
		"byteLength":216,
		"target":34963
	},
	{
		"buffer":3,
		"byteOffset":216,
		"byteLength":3328,
		"target":34962,
		"byteStride":32
	},
	{
		"buffer":4,
		"byteOffset":0,
		"byteLength":48,
		"target":34963
	},
	{
		"buffer":4,
		"byteOffset":48,
		"byteLength":768,
		"target":34962,
		"byteStride":32
	},
	{
		"buffer":5,
		"byteOffset":0,
		"byteLength":216,
		"target":34963
	},
	{
		"buffer":5,
		"byteOffset":216,
		"byteLength":3328,
		"target":34962,
		"byteStride":32
	},
	{
		"buffer":6,
		"byteOffset":0,
		"byteLength":4350,
		"target":34963
	},
	{
		"buffer":6,
		"byteOffset":4352,
		"byteLength":67136,
		"target":34962,
		"byteStride":32
	},
	{
		"buffer":7,
		"byteOffset":0,
		"byteLength":420,
		"target":34963
	},
	{
		"buffer":7,
		"byteOffset":420,
		"byteLength":6112,
		"target":34962,
		"byteStride":32
	}],
	"buffers":[{
		"uri":"data:application/octet-stream;base64,",
		"byteLength":6176
	},
	{
		"uri":"data:application/octet-stream;base64,",
		"byteLength":316616
	},
	{
		"uri":"data:application/octet-stream;base64,",
		"byteLength":816
	},
	{
		"uri":"data:application/octet-stream;base64,",
		"byteLength":3544
	},
	{
		"uri":"data:application/octet-stream;base64,",
		"byteLength":816
	},
	{
		"uri":"data:application/octet-stream;base64,",
		"byteLength":3544
	},
	{
		"uri":"data:application/octet-stream;base64,",
		"byteLength":71488
	},
	{
		"uri":"data:application/octet-stream;base64,",
		"byteLength":6532
	}]
}